<svg width="1110" height="313" viewBox="0 0 1110 313" fill="none" xmlns="http://www.w3.org/2000/svg">
<rect width="1110" height="313" rx="25" fill="#AF04FF"/>
<g filter="url(#filter0_d_54:41)">
<rect x="490.442" y="122" width="212.191" height="70" rx="10" fill="white"/>
</g>
<path d="M539.334 169H518.334C516.884 169 515.709 167.825 515.709 166.375V150.511C515.77 149.106 516.927 147.999 518.334 148H539.334C540.783 148 541.959 149.175 541.959 150.625V166.375C541.959 167.825 540.783 169 539.334 169ZM518.334 153.077V166.375H539.334V153.077L528.834 160.075L518.334 153.077ZM519.384 150.625L528.834 156.925L538.284 150.625H519.384Z" fill="#2F2F2F"/>
<path d="M563.519 152.96V157.16H569.159V159.824H563.519V164.264H569.879V167H560.159V150.224H569.879V152.96H563.519ZM589.445 153.512C591.077 153.512 592.389 154.016 593.381 155.024C594.389 156.016 594.893 157.408 594.893 159.2V167H591.533V159.656C591.533 158.616 591.269 157.824 590.741 157.28C590.213 156.72 589.493 156.44 588.581 156.44C587.669 156.44 586.941 156.72 586.397 157.28C585.869 157.824 585.605 158.616 585.605 159.656V167H582.245V159.656C582.245 158.616 581.981 157.824 581.453 157.28C580.925 156.72 580.205 156.44 579.293 156.44C578.365 156.44 577.629 156.72 577.085 157.28C576.557 157.824 576.293 158.616 576.293 159.656V167H572.933V153.704H576.293V155.312C576.725 154.752 577.277 154.312 577.949 153.992C578.637 153.672 579.389 153.512 580.205 153.512C581.245 153.512 582.173 153.736 582.989 154.184C583.805 154.616 584.437 155.24 584.885 156.056C585.317 155.288 585.941 154.672 586.757 154.208C587.589 153.744 588.485 153.512 589.445 153.512ZM597.217 160.304C597.217 158.96 597.481 157.768 598.009 156.728C598.553 155.688 599.281 154.888 600.193 154.328C601.121 153.768 602.153 153.488 603.289 153.488C604.281 153.488 605.145 153.688 605.881 154.088C606.633 154.488 607.233 154.992 607.681 155.6V153.704H611.065V167H607.681V165.056C607.249 165.68 606.649 166.2 605.881 166.616C605.129 167.016 604.257 167.216 603.265 167.216C602.145 167.216 601.121 166.928 600.193 166.352C599.281 165.776 598.553 164.968 598.009 163.928C597.481 162.872 597.217 161.664 597.217 160.304ZM607.681 160.352C607.681 159.536 607.521 158.84 607.201 158.264C606.881 157.672 606.449 157.224 605.905 156.92C605.361 156.6 604.777 156.44 604.153 156.44C603.529 156.44 602.953 156.592 602.425 156.896C601.897 157.2 601.465 157.648 601.129 158.24C600.809 158.816 600.649 159.504 600.649 160.304C600.649 161.104 600.809 161.808 601.129 162.416C601.465 163.008 601.897 163.464 602.425 163.784C602.969 164.104 603.545 164.264 604.153 164.264C604.777 164.264 605.361 164.112 605.905 163.808C606.449 163.488 606.881 163.04 607.201 162.464C607.521 161.872 607.681 161.168 607.681 160.352ZM616.051 152.12C615.459 152.12 614.963 151.936 614.563 151.568C614.179 151.184 613.987 150.712 613.987 150.152C613.987 149.592 614.179 149.128 614.563 148.76C614.963 148.376 615.459 148.184 616.051 148.184C616.643 148.184 617.131 148.376 617.515 148.76C617.915 149.128 618.115 149.592 618.115 150.152C618.115 150.712 617.915 151.184 617.515 151.568C617.131 151.936 616.643 152.12 616.051 152.12ZM617.707 153.704V167H614.347V153.704H617.707ZM624.386 149.24V167H621.026V149.24H624.386ZM651.689 150.248V167H648.329V156.104L643.841 167H641.297L636.785 156.104V167H633.425V150.248H637.241L642.569 162.704L647.897 150.248H651.689ZM667.371 160.064C667.371 160.544 667.339 160.976 667.275 161.36H657.555C657.635 162.32 657.971 163.072 658.563 163.616C659.155 164.16 659.883 164.432 660.747 164.432C661.995 164.432 662.883 163.896 663.411 162.824H667.035C666.651 164.104 665.915 165.16 664.827 165.992C663.739 166.808 662.403 167.216 660.819 167.216C659.539 167.216 658.387 166.936 657.363 166.376C656.355 165.8 655.563 164.992 654.987 163.952C654.427 162.912 654.147 161.712 654.147 160.352C654.147 158.976 654.427 157.768 654.987 156.728C655.547 155.688 656.331 154.888 657.339 154.328C658.347 153.768 659.507 153.488 660.819 153.488C662.083 153.488 663.211 153.76 664.203 154.304C665.211 154.848 665.987 155.624 666.531 156.632C667.091 157.624 667.371 158.768 667.371 160.064ZM663.891 159.104C663.875 158.24 663.563 157.552 662.955 157.04C662.347 156.512 661.603 156.248 660.723 156.248C659.891 156.248 659.187 156.504 658.611 157.016C658.051 157.512 657.707 158.208 657.579 159.104H663.891Z" fill="#2F2F2F"/>
<rect x="753.633" y="123" width="271.246" height="68" rx="9" stroke="white" stroke-width="2"/>
<path d="M788.242 165.168C787.01 165.168 785.906 164.968 784.93 164.568C783.954 164.168 783.17 163.576 782.578 162.792C782.002 162.008 781.698 161.064 781.666 159.96H786.034C786.098 160.584 786.314 161.064 786.682 161.4C787.05 161.72 787.53 161.88 788.122 161.88C788.73 161.88 789.21 161.744 789.562 161.472C789.914 161.184 790.09 160.792 790.09 160.296C790.09 159.88 789.946 159.536 789.658 159.264C789.386 158.992 789.042 158.768 788.626 158.592C788.226 158.416 787.65 158.216 786.898 157.992C785.81 157.656 784.922 157.32 784.234 156.984C783.546 156.648 782.954 156.152 782.458 155.496C781.962 154.84 781.714 153.984 781.714 152.928C781.714 151.36 782.282 150.136 783.418 149.256C784.554 148.36 786.034 147.912 787.858 147.912C789.714 147.912 791.21 148.36 792.346 149.256C793.482 150.136 794.09 151.368 794.17 152.952H789.73C789.698 152.408 789.498 151.984 789.13 151.68C788.762 151.36 788.29 151.2 787.714 151.2C787.218 151.2 786.818 151.336 786.514 151.608C786.21 151.864 786.058 152.24 786.058 152.736C786.058 153.28 786.314 153.704 786.826 154.008C787.338 154.312 788.138 154.64 789.226 154.992C790.314 155.36 791.194 155.712 791.866 156.048C792.554 156.384 793.146 156.872 793.642 157.512C794.138 158.152 794.386 158.976 794.386 159.984C794.386 160.944 794.138 161.816 793.642 162.6C793.162 163.384 792.458 164.008 791.53 164.472C790.602 164.936 789.506 165.168 788.242 165.168ZM809.536 158.088C809.536 158.472 809.512 158.872 809.464 159.288H800.176C800.24 160.12 800.504 160.76 800.968 161.208C801.448 161.64 802.032 161.856 802.72 161.856C803.744 161.856 804.456 161.424 804.856 160.56H809.224C809 161.44 808.592 162.232 808 162.936C807.424 163.64 806.696 164.192 805.816 164.592C804.936 164.992 803.952 165.192 802.864 165.192C801.552 165.192 800.384 164.912 799.36 164.352C798.336 163.792 797.536 162.992 796.96 161.952C796.384 160.912 796.096 159.696 796.096 158.304C796.096 156.912 796.376 155.696 796.936 154.656C797.512 153.616 798.312 152.816 799.336 152.256C800.36 151.696 801.536 151.416 802.864 151.416C804.16 151.416 805.312 151.688 806.32 152.232C807.328 152.776 808.112 153.552 808.672 154.56C809.248 155.568 809.536 156.744 809.536 158.088ZM805.336 157.008C805.336 156.304 805.096 155.744 804.616 155.328C804.136 154.912 803.536 154.704 802.816 154.704C802.128 154.704 801.544 154.904 801.064 155.304C800.6 155.704 800.312 156.272 800.2 157.008H805.336ZM824.325 158.088C824.325 158.472 824.301 158.872 824.253 159.288H814.965C815.029 160.12 815.293 160.76 815.757 161.208C816.237 161.64 816.821 161.856 817.509 161.856C818.533 161.856 819.245 161.424 819.645 160.56H824.013C823.789 161.44 823.381 162.232 822.789 162.936C822.213 163.64 821.485 164.192 820.605 164.592C819.725 164.992 818.741 165.192 817.653 165.192C816.341 165.192 815.173 164.912 814.149 164.352C813.125 163.792 812.325 162.992 811.749 161.952C811.173 160.912 810.885 159.696 810.885 158.304C810.885 156.912 811.165 155.696 811.725 154.656C812.301 153.616 813.101 152.816 814.125 152.256C815.149 151.696 816.325 151.416 817.653 151.416C818.949 151.416 820.101 151.688 821.109 152.232C822.117 152.776 822.901 153.552 823.461 154.56C824.037 155.568 824.325 156.744 824.325 158.088ZM820.125 157.008C820.125 156.304 819.885 155.744 819.405 155.328C818.925 154.912 818.325 154.704 817.605 154.704C816.917 154.704 816.333 154.904 815.853 155.304C815.389 155.704 815.101 156.272 814.989 157.008H820.125ZM850.656 148.152V165H846.552V154.896L842.784 165H839.472L835.68 154.872V165H831.576V148.152H836.424L841.152 159.816L845.832 148.152H850.656ZM859.703 165.192C858.391 165.192 857.207 164.912 856.151 164.352C855.111 163.792 854.287 162.992 853.679 161.952C853.087 160.912 852.791 159.696 852.791 158.304C852.791 156.928 853.095 155.72 853.703 154.68C854.311 153.624 855.143 152.816 856.199 152.256C857.255 151.696 858.439 151.416 859.751 151.416C861.063 151.416 862.247 151.696 863.303 152.256C864.359 152.816 865.191 153.624 865.799 154.68C866.407 155.72 866.711 156.928 866.711 158.304C866.711 159.68 866.399 160.896 865.775 161.952C865.167 162.992 864.327 163.792 863.255 164.352C862.199 164.912 861.015 165.192 859.703 165.192ZM859.703 161.64C860.487 161.64 861.151 161.352 861.695 160.776C862.255 160.2 862.535 159.376 862.535 158.304C862.535 157.232 862.263 156.408 861.719 155.832C861.191 155.256 860.535 154.968 859.751 154.968C858.951 154.968 858.287 155.256 857.759 155.832C857.231 156.392 856.967 157.216 856.967 158.304C856.967 159.376 857.223 160.2 857.735 160.776C858.263 161.352 858.919 161.64 859.703 161.64ZM872.992 153.84C873.472 153.104 874.072 152.528 874.792 152.112C875.512 151.68 876.312 151.464 877.192 151.464V155.808H876.064C875.04 155.808 874.272 156.032 873.76 156.48C873.248 156.912 872.992 157.68 872.992 158.784V165H868.888V151.608H872.992V153.84ZM891.778 158.088C891.778 158.472 891.754 158.872 891.706 159.288H882.418C882.482 160.12 882.746 160.76 883.21 161.208C883.69 161.64 884.274 161.856 884.962 161.856C885.986 161.856 886.698 161.424 887.098 160.56H891.466C891.242 161.44 890.834 162.232 890.242 162.936C889.666 163.64 888.938 164.192 888.058 164.592C887.178 164.992 886.194 165.192 885.106 165.192C883.794 165.192 882.626 164.912 881.602 164.352C880.578 163.792 879.778 162.992 879.202 161.952C878.626 160.912 878.338 159.696 878.338 158.304C878.338 156.912 878.618 155.696 879.178 154.656C879.754 153.616 880.554 152.816 881.578 152.256C882.602 151.696 883.778 151.416 885.106 151.416C886.402 151.416 887.554 151.688 888.562 152.232C889.57 152.776 890.354 153.552 890.914 154.56C891.49 155.568 891.778 156.744 891.778 158.088ZM887.578 157.008C887.578 156.304 887.338 155.744 886.858 155.328C886.378 154.912 885.778 154.704 885.058 154.704C884.37 154.704 883.786 154.904 883.306 155.304C882.842 155.704 882.554 156.272 882.442 157.008H887.578ZM911.869 153.576C911.869 154.552 911.645 155.448 911.197 156.264C910.749 157.064 910.061 157.712 909.133 158.208C908.205 158.704 907.053 158.952 905.677 158.952H903.133V165H899.029V148.152H905.677C907.021 148.152 908.157 148.384 909.085 148.848C910.013 149.312 910.709 149.952 911.173 150.768C911.637 151.584 911.869 152.52 911.869 153.576ZM905.365 155.688C906.149 155.688 906.733 155.504 907.117 155.136C907.501 154.768 907.693 154.248 907.693 153.576C907.693 152.904 907.501 152.384 907.117 152.016C906.733 151.648 906.149 151.464 905.365 151.464H903.133V155.688H905.365ZM918.11 153.84C918.59 153.104 919.19 152.528 919.91 152.112C920.63 151.68 921.43 151.464 922.31 151.464V155.808H921.182C920.158 155.808 919.39 156.032 918.878 156.48C918.366 156.912 918.11 157.68 918.11 158.784V165H914.006V151.608H918.11V153.84ZM930.367 165.192C929.055 165.192 927.871 164.912 926.815 164.352C925.775 163.792 924.951 162.992 924.343 161.952C923.751 160.912 923.455 159.696 923.455 158.304C923.455 156.928 923.759 155.72 924.367 154.68C924.975 153.624 925.807 152.816 926.863 152.256C927.919 151.696 929.103 151.416 930.415 151.416C931.727 151.416 932.911 151.696 933.967 152.256C935.023 152.816 935.855 153.624 936.463 154.68C937.071 155.72 937.375 156.928 937.375 158.304C937.375 159.68 937.063 160.896 936.439 161.952C935.831 162.992 934.991 163.792 933.919 164.352C932.863 164.912 931.679 165.192 930.367 165.192ZM930.367 161.64C931.151 161.64 931.815 161.352 932.359 160.776C932.919 160.2 933.199 159.376 933.199 158.304C933.199 157.232 932.927 156.408 932.383 155.832C931.855 155.256 931.199 154.968 930.415 154.968C929.615 154.968 928.951 155.256 928.423 155.832C927.895 156.392 927.631 157.216 927.631 158.304C927.631 159.376 927.887 160.2 928.399 160.776C928.927 161.352 929.583 161.64 930.367 161.64ZM941.593 150.216C940.873 150.216 940.281 150.008 939.817 149.592C939.369 149.16 939.145 148.632 939.145 148.008C939.145 147.368 939.369 146.84 939.817 146.424C940.281 145.992 940.873 145.776 941.593 145.776C942.297 145.776 942.873 145.992 943.321 146.424C943.785 146.84 944.017 147.368 944.017 148.008C944.017 148.632 943.785 149.16 943.321 149.592C942.873 150.008 942.297 150.216 941.593 150.216ZM943.657 166.728C943.657 168.376 943.241 169.56 942.409 170.28C941.577 171.016 940.417 171.384 938.929 171.384H937.321V167.904H938.305C938.753 167.904 939.073 167.816 939.265 167.64C939.457 167.464 939.553 167.176 939.553 166.776V151.608H943.657V166.728ZM959.231 158.088C959.231 158.472 959.207 158.872 959.159 159.288H949.871C949.935 160.12 950.199 160.76 950.663 161.208C951.143 161.64 951.727 161.856 952.415 161.856C953.439 161.856 954.151 161.424 954.551 160.56H958.919C958.695 161.44 958.287 162.232 957.695 162.936C957.119 163.64 956.391 164.192 955.511 164.592C954.631 164.992 953.647 165.192 952.559 165.192C951.247 165.192 950.079 164.912 949.055 164.352C948.031 163.792 947.231 162.992 946.655 161.952C946.079 160.912 945.791 159.696 945.791 158.304C945.791 156.912 946.071 155.696 946.631 154.656C947.207 153.616 948.007 152.816 949.031 152.256C950.055 151.696 951.231 151.416 952.559 151.416C953.855 151.416 955.007 151.688 956.015 152.232C957.023 152.776 957.807 153.552 958.367 154.56C958.943 155.568 959.231 156.744 959.231 158.088ZM955.031 157.008C955.031 156.304 954.791 155.744 954.311 155.328C953.831 154.912 953.231 154.704 952.511 154.704C951.823 154.704 951.239 154.904 950.759 155.304C950.295 155.704 950.007 156.272 949.895 157.008H955.031ZM960.58 158.304C960.58 156.912 960.86 155.696 961.42 154.656C961.996 153.616 962.788 152.816 963.796 152.256C964.82 151.696 965.988 151.416 967.3 151.416C968.98 151.416 970.38 151.856 971.5 152.736C972.636 153.616 973.38 154.856 973.732 156.456H969.364C968.996 155.432 968.284 154.92 967.228 154.92C966.476 154.92 965.876 155.216 965.428 155.808C964.98 156.384 964.756 157.216 964.756 158.304C964.756 159.392 964.98 160.232 965.428 160.824C965.876 161.4 966.476 161.688 967.228 161.688C968.284 161.688 968.996 161.176 969.364 160.152H973.732C973.38 161.72 972.636 162.952 971.5 163.848C970.364 164.744 968.964 165.192 967.3 165.192C965.988 165.192 964.82 164.912 963.796 164.352C962.788 163.792 961.996 162.992 961.42 161.952C960.86 160.912 960.58 159.696 960.58 158.304ZM983.392 161.52V165H981.304C979.816 165 978.656 164.64 977.824 163.92C976.992 163.184 976.576 161.992 976.576 160.344V155.016H974.944V151.608H976.576V148.344H980.68V151.608H983.368V155.016H980.68V160.392C980.68 160.792 980.776 161.08 980.968 161.256C981.16 161.432 981.48 161.52 981.928 161.52H983.392ZM991.126 165.192C989.958 165.192 988.918 164.992 988.006 164.592C987.094 164.192 986.374 163.648 985.846 162.96C985.318 162.256 985.022 161.472 984.958 160.608H989.014C989.062 161.072 989.278 161.448 989.662 161.736C990.046 162.024 990.518 162.168 991.078 162.168C991.59 162.168 991.982 162.072 992.254 161.88C992.542 161.672 992.686 161.408 992.686 161.088C992.686 160.704 992.486 160.424 992.086 160.248C991.686 160.056 991.038 159.848 990.142 159.624C989.182 159.4 988.382 159.168 987.742 158.928C987.102 158.672 986.55 158.28 986.086 157.752C985.622 157.208 985.39 156.48 985.39 155.568C985.39 154.8 985.598 154.104 986.014 153.48C986.446 152.84 987.07 152.336 987.886 151.968C988.718 151.6 989.702 151.416 990.838 151.416C992.518 151.416 993.838 151.832 994.798 152.664C995.774 153.496 996.334 154.6 996.478 155.976H992.686C992.622 155.512 992.414 155.144 992.062 154.872C991.726 154.6 991.278 154.464 990.718 154.464C990.238 154.464 989.87 154.56 989.614 154.752C989.358 154.928 989.23 155.176 989.23 155.496C989.23 155.88 989.43 156.168 989.83 156.36C990.246 156.552 990.886 156.744 991.75 156.936C992.742 157.192 993.55 157.448 994.174 157.704C994.798 157.944 995.342 158.344 995.806 158.904C996.286 159.448 996.534 160.184 996.55 161.112C996.55 161.896 996.326 162.6 995.878 163.224C995.446 163.832 994.814 164.312 993.982 164.664C993.166 165.016 992.214 165.192 991.126 165.192Z" fill="white"/>
<path d="M95.032 77.496V111H88.312V77.496H95.032ZM116.407 84.024C119.575 84.024 122.135 85.032 124.087 87.048C126.039 89.032 127.015 91.816 127.015 95.4V111H120.295V96.312C120.295 94.2 119.767 92.584 118.711 91.464C117.655 90.312 116.215 89.736 114.391 89.736C112.535 89.736 111.063 90.312 109.975 91.464C108.919 92.584 108.391 94.2 108.391 96.312V111H101.671V84.408H108.391V87.72C109.287 86.568 110.423 85.672 111.799 85.032C113.207 84.36 114.743 84.024 116.407 84.024ZM141.23 89.928V102.792C141.23 103.688 141.438 104.344 141.854 104.76C142.302 105.144 143.038 105.336 144.062 105.336H147.182V111H142.958C137.294 111 134.462 108.248 134.462 102.744V89.928H131.294V84.408H134.462V77.832H141.23V84.408H147.182V89.928H141.23ZM176.735 97.128C176.735 98.088 176.671 98.952 176.543 99.72H157.103C157.263 101.64 157.935 103.144 159.119 104.232C160.303 105.32 161.759 105.864 163.487 105.864C165.983 105.864 167.759 104.792 168.815 102.648H176.063C175.295 105.208 173.823 107.32 171.647 108.984C169.471 110.616 166.799 111.432 163.631 111.432C161.071 111.432 158.767 110.872 156.719 109.752C154.703 108.6 153.119 106.984 151.967 104.904C150.847 102.824 150.287 100.424 150.287 97.704C150.287 94.952 150.847 92.536 151.967 90.456C153.087 88.376 154.655 86.776 156.671 85.656C158.687 84.536 161.007 83.976 163.631 83.976C166.159 83.976 168.415 84.52 170.399 85.608C172.415 86.696 173.967 88.248 175.055 90.264C176.175 92.248 176.735 94.536 176.735 97.128ZM169.775 95.208C169.743 93.48 169.119 92.104 167.903 91.08C166.687 90.024 165.199 89.496 163.439 89.496C161.775 89.496 160.367 90.008 159.215 91.032C158.095 92.024 157.407 93.416 157.151 95.208H169.775ZM188.36 88.536C189.224 87.128 190.344 86.024 191.72 85.224C193.128 84.424 194.728 84.024 196.52 84.024V91.08H194.744C192.632 91.08 191.032 91.576 189.944 92.568C188.888 93.56 188.36 95.288 188.36 97.752V111H181.64V84.408H188.36V88.536ZM225.766 97.128C225.766 98.088 225.702 98.952 225.574 99.72H206.134C206.294 101.64 206.966 103.144 208.15 104.232C209.334 105.32 210.79 105.864 212.518 105.864C215.014 105.864 216.79 104.792 217.846 102.648H225.094C224.326 105.208 222.854 107.32 220.678 108.984C218.502 110.616 215.83 111.432 212.662 111.432C210.102 111.432 207.798 110.872 205.75 109.752C203.734 108.6 202.15 106.984 200.998 104.904C199.878 102.824 199.318 100.424 199.318 97.704C199.318 94.952 199.878 92.536 200.998 90.456C202.118 88.376 203.686 86.776 205.702 85.656C207.718 84.536 210.038 83.976 212.662 83.976C215.19 83.976 217.446 84.52 219.43 85.608C221.446 86.696 222.998 88.248 224.086 90.264C225.206 92.248 225.766 94.536 225.766 97.128ZM218.806 95.208C218.774 93.48 218.15 92.104 216.934 91.08C215.718 90.024 214.23 89.496 212.47 89.496C210.806 89.496 209.398 90.008 208.246 91.032C207.126 92.024 206.438 93.416 206.182 95.208H218.806ZM240.847 111.432C238.671 111.432 236.719 111.048 234.991 110.28C233.263 109.48 231.887 108.408 230.863 107.064C229.871 105.72 229.327 104.232 229.231 102.6H235.999C236.127 103.624 236.623 104.472 237.487 105.144C238.383 105.816 239.487 106.152 240.799 106.152C242.079 106.152 243.071 105.896 243.775 105.384C244.511 104.872 244.879 104.216 244.879 103.416C244.879 102.552 244.431 101.912 243.535 101.496C242.671 101.048 241.279 100.568 239.359 100.056C237.375 99.576 235.743 99.08 234.463 98.568C233.215 98.056 232.127 97.272 231.199 96.216C230.303 95.16 229.855 93.736 229.855 91.944C229.855 90.472 230.271 89.128 231.103 87.912C231.967 86.696 233.183 85.736 234.751 85.032C236.351 84.328 238.223 83.976 240.367 83.976C243.535 83.976 246.063 84.776 247.951 86.376C249.839 87.944 250.879 90.072 251.071 92.76H244.639C244.543 91.704 244.095 90.872 243.295 90.264C242.527 89.624 241.487 89.304 240.175 89.304C238.959 89.304 238.015 89.528 237.343 89.976C236.703 90.424 236.383 91.048 236.383 91.848C236.383 92.744 236.831 93.432 237.727 93.912C238.623 94.36 240.015 94.824 241.903 95.304C243.823 95.784 245.407 96.28 246.655 96.792C247.903 97.304 248.975 98.104 249.871 99.192C250.799 100.248 251.279 101.656 251.311 103.416C251.311 104.952 250.879 106.328 250.015 107.544C249.183 108.76 247.967 109.72 246.367 110.424C244.799 111.096 242.959 111.432 240.847 111.432ZM264.652 89.928V102.792C264.652 103.688 264.86 104.344 265.276 104.76C265.724 105.144 266.46 105.336 267.484 105.336H270.604V111H266.38C260.716 111 257.884 108.248 257.884 102.744V89.928H254.716V84.408H257.884V77.832H264.652V84.408H270.604V89.928H264.652ZM300.157 97.128C300.157 98.088 300.093 98.952 299.965 99.72H280.525C280.685 101.64 281.357 103.144 282.541 104.232C283.725 105.32 285.181 105.864 286.909 105.864C289.405 105.864 291.181 104.792 292.237 102.648H299.485C298.717 105.208 297.245 107.32 295.069 108.984C292.893 110.616 290.221 111.432 287.053 111.432C284.493 111.432 282.189 110.872 280.141 109.752C278.125 108.6 276.541 106.984 275.389 104.904C274.269 102.824 273.709 100.424 273.709 97.704C273.709 94.952 274.269 92.536 275.389 90.456C276.509 88.376 278.077 86.776 280.093 85.656C282.109 84.536 284.429 83.976 287.053 83.976C289.581 83.976 291.837 84.52 293.821 85.608C295.837 86.696 297.389 88.248 298.477 90.264C299.597 92.248 300.157 94.536 300.157 97.128ZM293.197 95.208C293.165 93.48 292.541 92.104 291.325 91.08C290.109 90.024 288.621 89.496 286.861 89.496C285.197 89.496 283.789 90.008 282.637 91.032C281.517 92.024 280.829 93.416 280.573 95.208H293.197ZM303.334 97.608C303.334 94.92 303.862 92.536 304.918 90.456C306.006 88.376 307.478 86.776 309.334 85.656C311.19 84.536 313.254 83.976 315.526 83.976C317.254 83.976 318.902 84.36 320.47 85.128C322.038 85.864 323.286 86.856 324.214 88.104V75.48H331.03V111H324.214V107.064C323.382 108.376 322.214 109.432 320.71 110.232C319.206 111.032 317.462 111.432 315.478 111.432C313.238 111.432 311.19 110.856 309.334 109.704C307.478 108.552 306.006 106.936 304.918 104.856C303.862 102.744 303.334 100.328 303.334 97.608ZM324.262 97.704C324.262 96.072 323.942 94.68 323.302 93.528C322.662 92.344 321.798 91.448 320.71 90.84C319.622 90.2 318.454 89.88 317.206 89.88C315.958 89.88 314.806 90.184 313.75 90.792C312.694 91.4 311.83 92.296 311.158 93.48C310.518 94.632 310.198 96.008 310.198 97.608C310.198 99.208 310.518 100.616 311.158 101.832C311.83 103.016 312.694 103.928 313.75 104.568C314.838 105.208 315.99 105.528 317.206 105.528C318.454 105.528 319.622 105.224 320.71 104.616C321.798 103.976 322.662 103.08 323.302 101.928C323.942 100.744 324.262 99.336 324.262 97.704ZM125.176 146.408L117.4 173H110.152L105.304 154.424L100.456 173H93.16L85.336 146.408H92.152L96.856 166.664L101.944 146.408H109.048L114.04 166.616L118.744 146.408H125.176ZM140.62 173.432C138.06 173.432 135.756 172.872 133.708 171.752C131.66 170.6 130.044 168.984 128.86 166.904C127.708 164.824 127.132 162.424 127.132 159.704C127.132 156.984 127.724 154.584 128.908 152.504C130.124 150.424 131.772 148.824 133.852 147.704C135.932 146.552 138.252 145.976 140.812 145.976C143.372 145.976 145.692 146.552 147.772 147.704C149.852 148.824 151.484 150.424 152.668 152.504C153.884 154.584 154.492 156.984 154.492 159.704C154.492 162.424 153.868 164.824 152.62 166.904C151.404 168.984 149.74 170.6 147.628 171.752C145.548 172.872 143.212 173.432 140.62 173.432ZM140.62 167.576C141.836 167.576 142.972 167.288 144.028 166.712C145.116 166.104 145.98 165.208 146.62 164.024C147.26 162.84 147.58 161.4 147.58 159.704C147.58 157.176 146.908 155.24 145.564 153.896C144.252 152.52 142.636 151.832 140.716 151.832C138.796 151.832 137.18 152.52 135.868 153.896C134.588 155.24 133.948 157.176 133.948 159.704C133.948 162.232 134.572 164.184 135.82 165.56C137.1 166.904 138.7 167.576 140.62 167.576ZM166.141 150.536C167.005 149.128 168.125 148.024 169.501 147.224C170.909 146.424 172.509 146.024 174.301 146.024V153.08H172.525C170.413 153.08 168.813 153.576 167.725 154.568C166.669 155.56 166.141 157.288 166.141 159.752V173H159.421V146.408H166.141V150.536ZM194.572 173L185.548 161.672V173H178.828V137.48H185.548V157.688L194.476 146.408H203.212L191.5 159.752L203.308 173H194.572ZM210.267 143.24C209.083 143.24 208.091 142.872 207.291 142.136C206.523 141.368 206.139 140.424 206.139 139.304C206.139 138.184 206.523 137.256 207.291 136.52C208.091 135.752 209.083 135.368 210.267 135.368C211.451 135.368 212.427 135.752 213.195 136.52C213.995 137.256 214.395 138.184 214.395 139.304C214.395 140.424 213.995 141.368 213.195 142.136C212.427 142.872 211.451 143.24 210.267 143.24ZM213.579 146.408V173H206.859V146.408H213.579ZM234.954 146.024C238.122 146.024 240.682 147.032 242.634 149.048C244.586 151.032 245.562 153.816 245.562 157.4V173H238.842V158.312C238.842 156.2 238.314 154.584 237.258 153.464C236.202 152.312 234.762 151.736 232.938 151.736C231.082 151.736 229.61 152.312 228.522 153.464C227.466 154.584 226.938 156.2 226.938 158.312V173H220.218V146.408H226.938V149.72C227.834 148.568 228.97 147.672 230.346 147.032C231.754 146.36 233.29 146.024 234.954 146.024ZM262.369 145.976C264.353 145.976 266.097 146.376 267.601 147.176C269.105 147.944 270.289 148.952 271.153 150.2V146.408H277.921V173.192C277.921 175.656 277.425 177.848 276.433 179.768C275.441 181.72 273.953 183.256 271.969 184.376C269.985 185.528 267.585 186.104 264.769 186.104C260.993 186.104 257.889 185.224 255.457 183.464C253.057 181.704 251.697 179.304 251.377 176.264H258.049C258.401 177.48 259.153 178.44 260.305 179.144C261.489 179.88 262.913 180.248 264.577 180.248C266.529 180.248 268.113 179.656 269.329 178.472C270.545 177.32 271.153 175.56 271.153 173.192V169.064C270.289 170.312 269.089 171.352 267.553 172.184C266.049 173.016 264.321 173.432 262.369 173.432C260.129 173.432 258.081 172.856 256.225 171.704C254.369 170.552 252.897 168.936 251.809 166.856C250.753 164.744 250.225 162.328 250.225 159.608C250.225 156.92 250.753 154.536 251.809 152.456C252.897 150.376 254.353 148.776 256.177 147.656C258.033 146.536 260.097 145.976 262.369 145.976ZM271.153 159.704C271.153 158.072 270.833 156.68 270.193 155.528C269.553 154.344 268.689 153.448 267.601 152.84C266.513 152.2 265.345 151.88 264.097 151.88C262.849 151.88 261.697 152.184 260.641 152.792C259.585 153.4 258.721 154.296 258.049 155.48C257.409 156.632 257.089 158.008 257.089 159.608C257.089 161.208 257.409 162.616 258.049 163.832C258.721 165.016 259.585 165.928 260.641 166.568C261.729 167.208 262.881 167.528 264.097 167.528C265.345 167.528 266.513 167.224 267.601 166.616C268.689 165.976 269.553 165.08 270.193 163.928C270.833 162.744 271.153 161.336 271.153 159.704ZM125.176 208.408L117.4 235H110.152L105.304 216.424L100.456 235H93.16L85.336 208.408H92.152L96.856 228.664L101.944 208.408H109.048L114.04 228.616L118.744 208.408H125.176ZM132.22 205.24C131.036 205.24 130.044 204.872 129.244 204.136C128.476 203.368 128.092 202.424 128.092 201.304C128.092 200.184 128.476 199.256 129.244 198.52C130.044 197.752 131.036 197.368 132.22 197.368C133.404 197.368 134.38 197.752 135.148 198.52C135.948 199.256 136.348 200.184 136.348 201.304C136.348 202.424 135.948 203.368 135.148 204.136C134.38 204.872 133.404 205.24 132.22 205.24ZM135.532 208.408V235H128.812V208.408H135.532ZM149.995 213.928V226.792C149.995 227.688 150.203 228.344 150.619 228.76C151.067 229.144 151.803 229.336 152.827 229.336H155.947V235H151.723C146.059 235 143.227 232.248 143.227 226.744V213.928H140.059V208.408H143.227V201.832H149.995V208.408H155.947V213.928H149.995ZM175.757 208.024C177.773 208.024 179.565 208.472 181.133 209.368C182.701 210.232 183.917 211.528 184.781 213.256C185.677 214.952 186.125 217 186.125 219.4V235H179.405V220.312C179.405 218.2 178.877 216.584 177.821 215.464C176.765 214.312 175.325 213.736 173.501 213.736C171.645 213.736 170.173 214.312 169.085 215.464C168.029 216.584 167.501 218.2 167.501 220.312V235H160.781V199.48H167.501V211.72C168.365 210.568 169.517 209.672 170.957 209.032C172.397 208.36 173.997 208.024 175.757 208.024ZM236.977 208.024C240.241 208.024 242.865 209.032 244.849 211.048C246.865 213.032 247.873 215.816 247.873 219.4V235H241.153V220.312C241.153 218.232 240.625 216.648 239.569 215.56C238.513 214.44 237.073 213.88 235.249 213.88C233.425 213.88 231.969 214.44 230.881 215.56C229.825 216.648 229.297 218.232 229.297 220.312V235H222.577V220.312C222.577 218.232 222.049 216.648 220.993 215.56C219.937 214.44 218.497 213.88 216.673 213.88C214.817 213.88 213.345 214.44 212.257 215.56C211.201 216.648 210.673 218.232 210.673 220.312V235H203.953V208.408H210.673V211.624C211.537 210.504 212.641 209.624 213.985 208.984C215.361 208.344 216.865 208.024 218.497 208.024C220.577 208.024 222.433 208.472 224.065 209.368C225.697 210.232 226.961 211.48 227.857 213.112C228.721 211.576 229.969 210.344 231.601 209.416C233.265 208.488 235.057 208.024 236.977 208.024ZM278.97 221.128C278.97 222.088 278.906 222.952 278.778 223.72H259.338C259.498 225.64 260.17 227.144 261.354 228.232C262.538 229.32 263.994 229.864 265.722 229.864C268.218 229.864 269.994 228.792 271.05 226.648H278.298C277.53 229.208 276.058 231.32 273.882 232.984C271.706 234.616 269.034 235.432 265.866 235.432C263.306 235.432 261.002 234.872 258.954 233.752C256.938 232.6 255.354 230.984 254.202 228.904C253.082 226.824 252.521 224.424 252.521 221.704C252.521 218.952 253.082 216.536 254.202 214.456C255.322 212.376 256.89 210.776 258.906 209.656C260.922 208.536 263.242 207.976 265.866 207.976C268.394 207.976 270.65 208.52 272.634 209.608C274.65 210.696 276.202 212.248 277.29 214.264C278.41 216.248 278.97 218.536 278.97 221.128ZM272.01 219.208C271.978 217.48 271.354 216.104 270.138 215.08C268.922 214.024 267.434 213.496 265.674 213.496C264.01 213.496 262.602 214.008 261.45 215.032C260.33 216.024 259.642 217.416 259.386 219.208H272.01ZM293.234 200.344C296.563 200.344 299.235 201.256 301.251 203.08C303.299 204.872 304.323 207.352 304.323 210.52C304.323 213.656 303.315 216.056 301.299 217.72C299.283 219.352 296.611 220.168 293.283 220.168L293.091 223.864H287.187L286.947 215.704H289.107C291.891 215.704 294.035 215.336 295.539 214.6C297.043 213.864 297.795 212.52 297.795 210.568C297.795 209.16 297.379 208.04 296.547 207.208C295.747 206.376 294.643 205.96 293.234 205.96C291.763 205.96 290.611 206.36 289.779 207.16C288.979 207.96 288.579 209.064 288.579 210.472H282.243C282.211 208.52 282.627 206.776 283.491 205.24C284.355 203.704 285.619 202.504 287.283 201.64C288.979 200.776 290.963 200.344 293.234 200.344ZM290.115 235.336C288.899 235.336 287.891 234.968 287.091 234.232C286.323 233.464 285.939 232.52 285.939 231.4C285.939 230.28 286.323 229.352 287.091 228.616C287.891 227.848 288.899 227.464 290.115 227.464C291.299 227.464 292.275 227.848 293.043 228.616C293.811 229.352 294.195 230.28 294.195 231.4C294.195 232.52 293.811 233.464 293.043 234.232C292.275 234.968 291.299 235.336 290.115 235.336Z" fill="white"/>
<defs>
<filter id="filter0_d_54:41" x="488.518" y="121.004" width="216.038" height="73.8471" filterUnits="userSpaceOnUse" color-interpolation-filters="sRGB">
<feFlood flood-opacity="0" result="BackgroundImageFix"/>
<feColorMatrix in="SourceAlpha" type="matrix" values="0 0 0 0 0 0 0 0 0 0 0 0 0 0 0 0 0 0 127 0" result="hardAlpha"/>
<feOffset dy="0.927421"/>
<feGaussianBlur stdDeviation="0.96177"/>
<feColorMatrix type="matrix" values="0 0 0 0 0 0 0 0 0 0 0 0 0 0 0 0 0 0 0.01 0"/>
<feBlend mode="normal" in2="BackgroundImageFix" result="effect1_dropShadow_54:41"/>
<feBlend mode="normal" in="SourceGraphic" in2="effect1_dropShadow_54:41" result="shape"/>
</filter>
</defs>
</svg>
